<?xml version="1.0" standalone="no"?>
<!DOCTYPE svg PUBLIC "-//W3C//DTD SVG 20010904//EN"
 "http://www.w3.org/TR/2001/REC-SVG-20010904/DTD/svg10.dtd">
<svg version="1.0" xmlns="http://www.w3.org/2000/svg"
 width="512.000000pt" height="512.000000pt" viewBox="0 0 512.000000 512.000000"
 preserveAspectRatio="xMidYMid meet">

<g transform="translate(0.000000,512.000000) scale(0.100000,-0.100000)"
fill="#000000" stroke="none">
<path d="M2382 4950 c-160 -42 -316 -153 -406 -288 -70 -106 -101 -195 -121
-346 l-7 -48 -31 30 c-57 53 -154 109 -244 138 -79 26 -101 29 -223 29 -115 0
-145 -4 -205 -23 -199 -67 -347 -197 -432 -380 -96 -207 -80 -478 40 -666 21
-33 53 -75 69 -93 l30 -31 -48 -7 c-151 -20 -240 -51 -346 -121 -136 -90 -243
-242 -290 -411 -22 -77 -22 -89 -26 -983 -2 -625 0 -931 8 -989 44 -328 283
-568 611 -611 59 -8 614 -10 1854 -8 1995 4 1803 -5 1983 84 132 64 232 164
296 296 86 175 81 101 81 1168 0 1068 3 1018 -79 1185 -51 104 -128 194 -222
261 -103 73 -199 108 -358 129 l-48 7 30 31 c53 57 109 154 138 244 26 79 29
101 29 223 0 115 -4 145 -23 205 -77 229 -235 388 -462 465 -100 34 -270 39
-379 11 -106 -26 -212 -78 -278 -136 l-52 -45 -6 47 c-20 150 -51 239 -121
345 -94 141 -267 259 -429 293 -98 20 -244 18 -333 -5z m333 -339 c109 -50
177 -130 210 -245 32 -111 5 -242 -69 -339 l-26 -34 0 -389 0 -389 279 279
278 278 6 53 c8 75 55 162 121 223 150 136 378 131 521 -13 145 -144 149 -373
9 -524 -60 -65 -148 -111 -225 -119 -46 -4 -51 -8 -325 -283 l-279 -279 389 0
389 0 34 26 c184 140 446 95 561 -96 32 -54 44 -88 58 -162 l6 -38 -2091 0
-2092 0 7 48 c19 134 96 237 224 299 48 24 68 27 150 28 83 0 102 -3 152 -27
32 -15 73 -38 91 -52 l34 -26 389 0 389 0 -279 279 -278 278 -53 6 c-75 8
-162 55 -223 121 -136 150 -131 378 13 521 143 143 372 149 521 13 66 -61 113
-148 121 -223 l6 -53 278 -278 279 -279 0 389 0 389 -26 34 c-14 18 -37 59
-52 91 -24 50 -27 69 -27 152 1 84 4 102 30 155 51 107 157 192 269 215 67 15
164 2 231 -29z m-1195 -2224 c226 -80 387 -285 416 -529 l6 -58 -185 0 -184 0
-7 43 c-13 81 -76 160 -155 193 -53 23 -147 22 -201 -3 -96 -42 -155 -134
-154 -238 1 -72 20 -119 69 -173 44 -50 85 -65 237 -92 200 -34 306 -86 411
-199 62 -68 115 -162 143 -257 25 -81 25 -247 0 -329 -58 -195 -213 -360 -398
-425 -87 -31 -257 -38 -352 -16 -123 29 -251 109 -337 213 -77 91 -139 250
-139 353 l0 40 180 0 180 0 6 -40 c24 -147 183 -248 326 -206 190 55 249 286
111 428 -42 43 -87 60 -228 87 -257 49 -403 141 -499 314 -71 128 -96 313 -61
452 56 219 235 400 455 460 88 24 266 15 360 -18z m910 -564 c68 -329 126
-608 129 -621 4 -14 54 209 130 575 67 329 125 608 128 621 5 22 7 22 189 22
l184 0 -5 -22 c-3 -13 -37 -176 -76 -363 -288 -1393 -359 -1738 -359 -1741 0
-2 -83 -4 -185 -4 -183 0 -185 0 -190 22 -7 33 -78 375 -130 628 -24 118 -103
498 -175 843 -71 345 -130 630 -130 632 0 3 82 5 183 5 l183 0 124 -597z
m1535 582 c223 -57 407 -244 459 -465 9 -36 16 -82 16 -102 l0 -38 -185 0
-185 0 0 30 c0 74 -78 176 -158 207 -56 21 -143 22 -193 1 -54 -24 -110 -78
-135 -133 l-24 -50 0 -494 c0 -362 3 -505 12 -535 8 -25 32 -61 63 -93 40 -41
62 -55 109 -68 123 -36 253 24 307 140 16 34 19 66 19 203 l0 162 -125 0 -125
0 0 185 0 185 310 0 310 0 0 -353 c0 -321 -2 -361 -20 -432 -28 -109 -80 -196
-169 -286 -122 -122 -261 -179 -436 -179 -109 0 -186 18 -282 66 -171 86 -295
254 -333 449 -8 42 -10 219 -8 590 l3 530 27 75 c70 190 227 340 418 397 91
27 236 30 325 8z"/>
</g>
</svg>
